<svg width="1507" height="71" viewBox="0 0 1507 71" fill="none" xmlns="http://www.w3.org/2000/svg">
<path d="M1443.11 14.1269C1442.98 13.6345 1443.06 13.1127 1443.32 12.6754C1443.59 12.2381 1444.03 11.9208 1444.53 11.7929C1448.78 10.7357 1453.23 10.7357 1457.47 11.7929C1457.94 11.9092 1458.35 12.1872 1458.62 12.5749C1458.89 12.9625 1459.01 13.433 1458.95 13.898C1458.89 14.3629 1458.65 14.7903 1458.29 15.0998C1457.92 15.4093 1457.46 15.5796 1456.97 15.5787C1456.8 15.5778 1456.64 15.5568 1456.47 15.5162C1452.88 14.6206 1449.12 14.6206 1445.53 15.5162C1445.28 15.5789 1445.01 15.5928 1444.75 15.5569C1444.49 15.5211 1444.24 15.4362 1444.02 15.3071C1443.79 15.1781 1443.6 15.0074 1443.44 14.8049C1443.29 14.6023 1443.17 14.3719 1443.11 14.1269ZM1427.46 31.6734C1427.71 31.741 1427.97 31.76 1428.23 31.7293C1428.49 31.6986 1428.74 31.6188 1428.97 31.4945C1429.2 31.3702 1429.4 31.2037 1429.56 31.0047C1429.72 30.8057 1429.84 30.578 1429.91 30.3346C1430.9 26.8839 1432.78 23.7333 1435.38 21.1791C1435.72 20.8105 1435.9 20.3295 1435.89 19.8359C1435.87 19.3423 1435.66 18.8739 1435.29 18.5278C1434.93 18.1817 1434.44 17.9844 1433.93 17.9768C1433.42 17.9692 1432.92 18.1519 1432.55 18.4871C1429.48 21.505 1427.25 25.2269 1426.08 29.3035C1426.01 29.5467 1425.99 29.8009 1426.02 30.0516C1426.05 30.3024 1426.13 30.5447 1426.26 30.7648C1426.39 30.9848 1426.56 31.1784 1426.77 31.3343C1426.97 31.4902 1427.21 31.6054 1427.46 31.6734ZM1456.47 56.4838C1452.88 57.3794 1449.12 57.3794 1445.53 56.4838C1445.02 56.3651 1444.49 56.4441 1444.04 56.7038C1443.59 56.9636 1443.27 57.3832 1443.13 57.872C1443 58.3609 1443.08 58.8798 1443.34 59.3167C1443.6 59.7536 1444.03 60.0734 1444.53 60.2071C1448.78 61.2643 1453.23 61.2643 1457.47 60.2071C1457.97 60.0734 1458.4 59.7536 1458.66 59.3167C1458.92 58.8798 1459 58.3609 1458.87 57.872C1458.74 57.3832 1458.41 56.9636 1457.96 56.7038C1457.52 56.4441 1456.98 56.3651 1456.47 56.4838ZM1472.09 30.3394C1472.23 30.8309 1472.57 31.2481 1473.03 31.4992C1473.49 31.7503 1474.03 31.8147 1474.54 31.6782C1475.05 31.5418 1475.48 31.2157 1475.74 30.7717C1476 30.3277 1476.07 29.8022 1475.93 29.3107C1474.75 25.2344 1472.53 21.5127 1469.46 18.4943C1469.28 18.3071 1469.06 18.1569 1468.82 18.0524C1468.58 17.948 1468.32 17.8914 1468.05 17.8861C1467.78 17.8807 1467.52 17.9267 1467.27 18.0213C1467.03 18.1159 1466.8 18.2572 1466.61 18.4369C1466.42 18.6166 1466.27 18.831 1466.17 19.0677C1466.07 19.3043 1466.02 19.5583 1466.02 19.8147C1466.02 20.0711 1466.07 20.3247 1466.18 20.5607C1466.28 20.7967 1466.43 21.0102 1466.62 21.1888C1469.22 23.7438 1471.1 26.8919 1472.09 30.3394ZM1475.93 42.6917C1474.62 47.2782 1471.97 51.4045 1468.3 54.5826C1468.08 54.7804 1467.8 54.9251 1467.51 55.0054C1467.22 55.0858 1466.91 55.0997 1466.61 55.046C1466.31 54.9923 1466.02 54.8725 1465.78 54.6958C1465.53 54.5192 1465.33 54.2904 1465.2 54.0273C1463.86 51.4938 1461.83 49.3659 1459.33 47.8795C1456.82 46.3932 1453.94 45.6063 1451 45.6063C1448.06 45.6063 1445.18 46.3932 1442.67 47.8795C1440.17 49.3659 1438.14 51.4938 1436.81 54.0273C1436.67 54.2902 1436.47 54.5188 1436.22 54.6954C1435.98 54.872 1435.7 54.9919 1435.4 55.0458C1435.1 55.0997 1434.79 55.0862 1434.49 55.0063C1434.2 54.9264 1433.93 54.7822 1433.7 54.585C1430.04 51.4051 1427.39 47.2772 1426.07 42.6893C1425.93 42.1978 1426 41.6724 1426.26 41.2286C1426.52 40.7848 1426.95 40.4591 1427.46 40.3229C1427.97 40.1868 1428.51 40.2516 1428.97 40.5029C1429.43 40.7542 1429.77 41.1715 1429.91 41.663C1430.8 44.7705 1432.41 47.6389 1434.63 50.0469C1436.85 46.935 1439.98 44.5286 1443.61 43.1316C1441.66 41.648 1440.24 39.614 1439.54 37.3124C1438.84 35.0109 1438.9 32.5562 1439.72 30.2898C1440.53 28.0234 1442.05 26.0581 1444.07 24.667C1446.09 23.276 1448.51 22.5285 1451 22.5285C1453.48 22.5285 1455.9 23.276 1457.92 24.667C1459.94 26.0581 1461.46 28.0234 1462.28 30.2898C1463.09 32.5562 1463.15 35.0109 1462.45 37.3124C1461.75 39.614 1460.33 41.648 1458.38 43.1316C1462.01 44.5286 1465.14 46.935 1467.36 50.0469C1469.58 47.6389 1471.19 44.7705 1472.08 41.663C1472.15 41.4196 1472.27 41.1919 1472.43 40.9929C1472.6 40.794 1472.8 40.6275 1473.02 40.5032C1473.25 40.3789 1473.5 40.2991 1473.76 40.2684C1474.02 40.2376 1474.28 40.2566 1474.53 40.3242C1474.79 40.3917 1475.02 40.5065 1475.23 40.6621C1475.43 40.8176 1475.61 41.0108 1475.73 41.2307C1475.86 41.4505 1475.95 41.6927 1475.98 41.9434C1476.01 42.1941 1475.99 42.4484 1475.92 42.6917H1475.93ZM1451 41.7687C1452.58 41.7687 1454.11 41.3176 1455.42 40.4725C1456.73 39.6273 1457.75 38.426 1458.35 37.0206C1458.96 35.6151 1459.11 34.0686 1458.81 32.5765C1458.5 31.0845 1457.74 29.714 1456.63 28.6383C1455.52 27.5626 1454.1 26.83 1452.55 26.5332C1451.01 26.2364 1449.41 26.3888 1447.96 26.9709C1446.5 27.5531 1445.26 28.5389 1444.38 29.8038C1443.51 31.0687 1443.04 32.5558 1443.04 34.0771C1443.04 36.117 1443.88 38.0734 1445.37 39.5159C1446.87 40.9584 1448.89 41.7687 1451 41.7687Z" fill="black"/>
</svg>
