<svg width="25" height="25" viewBox="0 0 25 25" fill="none" xmlns="http://www.w3.org/2000/svg">
<path d="M8.5534 1.56343C8.48876 1.31724 8.52754 1.05633 8.66128 0.837679C8.79503 0.619031 9.01286 0.460411 9.26722 0.39646C11.3881 -0.132153 13.613 -0.132153 15.7339 0.39646C15.9688 0.454585 16.1736 0.593622 16.3099 0.78744C16.4462 0.981259 16.5046 1.21651 16.474 1.44899C16.4435 1.68147 16.3261 1.89516 16.144 2.0499C15.9619 2.20465 15.7276 2.28979 15.4851 2.28933C15.4012 2.2889 15.3177 2.27841 15.2364 2.25808C13.4419 1.8103 11.5592 1.8103 9.76465 2.25808C9.63792 2.28947 9.50603 2.2964 9.37652 2.27846C9.24701 2.26053 9.12244 2.21808 9.00993 2.15356C8.89742 2.08903 8.79919 2.0037 8.72085 1.90243C8.64251 1.80117 8.58561 1.68597 8.5534 1.56343ZM0.730005 10.3367C0.855917 10.3705 0.987486 10.38 1.1172 10.3647C1.24691 10.3493 1.37221 10.3094 1.48597 10.2473C1.59972 10.1851 1.69968 10.1019 1.78015 10.0024C1.86062 9.90286 1.92001 9.789 1.95494 9.66731C2.45061 7.94193 3.39206 6.36667 4.69082 5.08957C4.86086 4.90525 4.951 4.66477 4.94255 4.41797C4.9341 4.17117 4.82772 3.93697 4.64545 3.76391C4.46318 3.59085 4.219 3.49221 3.96351 3.48841C3.70803 3.48462 3.46082 3.57597 3.27314 3.74353C1.73879 5.25251 0.62622 7.11344 0.0398149 9.15173C0.00460993 9.27333 -0.00546329 9.40045 0.0101703 9.52581C0.0258039 9.65118 0.0668382 9.77234 0.13093 9.88238C0.195021 9.99242 0.280915 10.0892 0.383705 10.1671C0.486495 10.2451 0.604168 10.3027 0.730005 10.3367ZM15.2364 22.7419C13.4419 23.1897 11.5592 23.1897 9.76465 22.7419C9.51076 22.6825 9.24289 22.7221 9.01888 22.8519C8.79488 22.9818 8.63271 23.1916 8.5674 23.436C8.50209 23.6804 8.53887 23.9399 8.66981 24.1583C8.80074 24.3768 9.01532 24.5367 9.26722 24.6035C11.3881 25.1322 13.613 25.1322 15.7339 24.6035C15.9858 24.5367 16.2003 24.3768 16.3313 24.1583C16.4622 23.9399 16.499 23.6804 16.4337 23.436C16.3684 23.1916 16.2062 22.9818 15.9822 22.8519C15.7582 22.7221 15.4903 22.6825 15.2364 22.7419ZM23.0461 9.66971C23.1167 9.91546 23.2854 10.124 23.5151 10.2496C23.7449 10.3751 24.0168 10.4073 24.2711 10.3391C24.5254 10.2709 24.7412 10.1079 24.8711 9.88587C25.001 9.66386 25.0343 9.40108 24.9637 9.15533C24.3769 7.11721 23.2644 5.25637 21.7304 3.74714C21.6398 3.65355 21.5306 3.57844 21.4095 3.52621C21.2883 3.47399 21.1576 3.4457 21.025 3.44303C20.8923 3.44036 20.7605 3.46335 20.6372 3.51064C20.5139 3.55794 20.4016 3.62859 20.307 3.71844C20.2123 3.80829 20.1373 3.91552 20.0862 4.03383C20.035 4.15213 20.0089 4.27913 20.0093 4.40733C20.0098 4.53553 20.0367 4.66236 20.0886 4.78035C20.1405 4.89834 20.2163 5.00511 20.3115 5.09438C21.6079 6.3719 22.5482 7.94597 23.0449 9.66971H23.0461ZM24.9662 15.8459C24.308 18.1391 22.9841 20.2022 21.1509 21.7913C21.0375 21.8902 20.9021 21.9625 20.7551 22.0027C20.6082 22.0429 20.4536 22.0498 20.3034 22.023C20.1532 21.9961 20.0114 21.9362 19.889 21.8479C19.7667 21.7596 19.667 21.6452 19.5977 21.5137C18.9324 20.2469 17.9171 19.183 16.6644 18.4398C15.4117 17.6966 13.9705 17.3032 12.5005 17.3032C11.0306 17.3032 9.58939 17.6966 8.33667 18.4398C7.08395 19.183 6.06867 20.2469 5.4034 21.5137C5.33419 21.6451 5.23463 21.7594 5.1124 21.8477C4.99018 21.936 4.84857 21.9959 4.69854 22.0229C4.54851 22.0499 4.39407 22.0431 4.24717 22.0031C4.10028 21.9632 3.96486 21.8911 3.8514 21.7925C2.01816 20.2025 0.694229 18.1386 0.0360843 15.8447C-0.0343321 15.5989 -0.000847921 15.3362 0.129171 15.1143C0.25919 14.8924 0.475093 14.7295 0.729383 14.6615C0.983674 14.5934 1.25552 14.6258 1.48512 14.7514C1.71473 14.8771 1.88328 15.0857 1.95369 15.3315C2.39871 16.8852 3.2071 18.3194 4.3165 19.5234C5.42654 17.9675 6.98874 16.7643 8.80585 16.0658C7.8308 15.324 7.11919 14.307 6.77002 13.1562C6.42085 12.0054 6.45147 10.7781 6.85762 9.64491C7.26377 8.51172 8.02526 7.52903 9.03616 6.83352C10.0471 6.13801 11.2571 5.76426 12.4981 5.76426C13.739 5.76426 14.949 6.13801 15.9599 6.83352C16.9708 7.52903 17.7323 8.51172 18.1385 9.64491C18.5446 10.7781 18.5753 12.0054 18.2261 13.1562C17.8769 14.307 17.1653 15.324 16.1903 16.0658C18.0074 16.7643 19.5696 17.9675 20.6796 19.5234C21.789 18.3194 22.5974 16.8852 23.0424 15.3315C23.0774 15.2098 23.1368 15.096 23.2172 14.9965C23.2977 14.897 23.3977 14.8138 23.5114 14.7516C23.6252 14.6895 23.7505 14.6495 23.8802 14.6342C24.0099 14.6188 24.1414 14.6283 24.2673 14.6621C24.3933 14.6959 24.511 14.7533 24.614 14.831C24.717 14.9088 24.8031 15.0054 24.8674 15.1153C24.9317 15.2253 24.973 15.3463 24.9889 15.4717C25.0048 15.597 24.995 15.7242 24.96 15.8459H24.9662ZM12.5005 15.3844C13.2876 15.3844 14.057 15.1588 14.7114 14.7362C15.3658 14.3136 15.8759 13.713 16.1771 13.0103C16.4783 12.3075 16.5571 11.5343 16.4035 10.7883C16.25 10.0422 15.871 9.35698 15.3145 8.81913C14.7579 8.28128 14.0488 7.915 13.2769 7.76661C12.505 7.61822 11.7048 7.69438 10.9777 7.98546C10.2505 8.27654 9.629 8.76947 9.19173 9.40192C8.75446 10.0344 8.52107 10.7779 8.52107 11.5385C8.52107 12.5585 8.94033 13.5367 9.68663 14.258C10.4329 14.9792 11.4451 15.3844 12.5005 15.3844Z" fill="black"/>
</svg>
