<svg width="30" height="30" viewBox="0 0 30 30" fill="none" xmlns="http://www.w3.org/2000/svg">
<path d="M15.0013 8.07823C13.7299 8.07823 12.4871 8.48418 11.43 9.24474C10.3729 10.0053 9.549 11.0863 9.06247 12.3511C8.57594 13.6158 8.44864 15.0076 8.69667 16.3502C8.9447 17.6929 9.55692 18.9262 10.4559 19.8942C11.3549 20.8622 12.5003 21.5215 13.7472 21.7885C14.9941 22.0556 16.2866 21.9185 17.4612 21.3946C18.6358 20.8708 19.6397 19.9836 20.346 18.8453C21.0524 17.7071 21.4294 16.3689 21.4294 14.9999C21.4276 13.1647 20.7498 11.4053 19.5447 10.1076C18.3396 8.81 16.7056 8.08014 15.0013 8.07823ZM15.0013 19.6143C14.1537 19.6143 13.3252 19.3437 12.6204 18.8366C11.9157 18.3296 11.3664 17.6089 11.0421 16.7657C10.7177 15.9226 10.6329 14.9948 10.7982 14.0996C10.9636 13.2045 11.3717 12.3823 11.971 11.737C12.5704 11.0916 13.3339 10.6522 14.1652 10.4741C14.9965 10.2961 15.8582 10.3874 16.6412 10.7367C17.4243 11.086 18.0936 11.6774 18.5645 12.4362C19.0353 13.1951 19.2867 14.0872 19.2867 14.9999C19.2867 16.2237 18.8352 17.3974 18.0315 18.2628C17.2278 19.1281 16.1378 19.6143 15.0013 19.6143ZM29.7243 12.0019C29.6945 11.8395 29.6325 11.6859 29.5426 11.5515C29.4527 11.4171 29.337 11.3052 29.2034 11.2233L25.2086 8.77184L25.1925 3.9238C25.192 3.75684 25.1579 3.59198 25.0924 3.4406C25.027 3.28923 24.9318 3.15496 24.8135 3.04706C23.3644 1.72718 21.6957 0.715713 19.896 0.0664251C19.7543 0.014772 19.6041 -0.00434337 19.4551 0.01031C19.3061 0.0249634 19.1616 0.0730606 19.0309 0.151504L15.0013 2.57696L10.9676 0.147178C10.8369 0.0682927 10.6922 0.0198323 10.5429 0.00492881C10.3937 -0.00997468 10.2432 0.00901042 10.1012 0.0606569C8.30284 0.714692 6.63601 1.73002 5.18903 3.05283C5.07087 3.16057 4.9758 3.29461 4.91037 3.44572C4.84495 3.59682 4.81072 3.76141 4.81004 3.92813L4.78995 8.78049L0.795147 11.2319C0.661498 11.3138 0.545797 11.4258 0.455906 11.5602C0.366016 11.6945 0.304044 11.8481 0.274203 12.0106C-0.091401 13.9889 -0.091401 16.0253 0.274203 18.0036C0.304044 18.166 0.366016 18.3197 0.455906 18.454C0.545797 18.5884 0.661498 18.7003 0.795147 18.7823L4.78995 21.2337L4.80602 26.0817C4.80651 26.2487 4.84064 26.4136 4.90608 26.5649C4.97151 26.7163 5.06668 26.8506 5.18501 26.9585C6.63411 28.2783 8.30285 29.2898 10.1025 29.9391C10.2442 29.9908 10.3944 30.0099 10.5434 29.9952C10.6924 29.9806 10.8369 29.9325 10.9676 29.854L15.0013 27.4228L19.0349 29.8526C19.1945 29.9484 19.3745 29.998 19.5572 29.9968C19.6742 29.9967 19.7904 29.9763 19.9014 29.9362C21.6995 29.2831 23.3663 28.2687 24.8135 26.9469C24.9317 26.8392 25.0267 26.7051 25.0922 26.554C25.1576 26.4029 25.1918 26.2383 25.1925 26.0716L25.2126 21.2193L29.2074 18.7679C29.341 18.6859 29.4567 18.574 29.5466 18.4396C29.6365 18.3052 29.6985 18.1516 29.7283 17.9892C30.0919 16.0125 30.0905 13.9781 29.7243 12.0019ZM27.7155 17.036L23.8895 19.3793C23.7218 19.4819 23.583 19.6314 23.4877 19.8119C23.41 19.9561 23.3284 20.1089 23.2453 20.2531C23.139 20.435 23.0824 20.6453 23.0819 20.8602L23.0619 25.5107C22.0334 26.3803 20.8877 27.0757 19.6643 27.5728L15.8048 25.2569C15.6446 25.1614 15.4643 25.1118 15.2812 25.1127H15.2557C15.0937 25.1127 14.9303 25.1127 14.7682 25.1127C14.5766 25.1075 14.3871 25.1573 14.2192 25.2569L10.357 27.5785C9.13095 27.0853 7.98207 26.3933 6.95006 25.5266L6.93533 20.8833C6.93467 20.668 6.87808 20.4572 6.77195 20.2748C6.68892 20.1306 6.60723 19.9864 6.5309 19.8335C6.43625 19.6502 6.29746 19.4978 6.12914 19.3922L2.29906 17.0432C2.10086 15.6932 2.10086 14.3181 2.29906 12.9681L6.11842 10.6205C6.28606 10.5179 6.42486 10.3684 6.52018 10.1879C6.59785 10.0437 6.67955 9.89084 6.76258 9.74664C6.86886 9.56479 6.92548 9.35441 6.92596 9.13955L6.94604 4.48907C7.97445 3.61946 9.12016 2.92408 10.3436 2.427L14.1978 4.74286C14.3655 4.84298 14.5551 4.89278 14.7468 4.88706C14.9089 4.88706 15.0722 4.88706 15.2343 4.88706C15.4259 4.89222 15.6154 4.84246 15.7834 4.74286L19.6456 2.42123C20.8716 2.9145 22.0205 3.60647 23.0525 4.47321L23.0672 9.11648C23.0679 9.33176 23.1245 9.54255 23.2306 9.72501C23.3136 9.86921 23.3953 10.0134 23.4716 10.1663C23.5663 10.3496 23.7051 10.502 23.8734 10.6075L27.7035 12.9566C27.9043 14.3076 27.9066 15.6842 27.7102 17.036H27.7155Z" fill="black"/>
</svg>
