<svg width="30" height="30" viewBox="0 0 30 30" fill="none" xmlns="http://www.w3.org/2000/svg">
<path d="M20.5674 7.00666C19.5978 4.56173 17.874 2.55239 15.6874 1.31837C13.5009 0.084336 10.9858 -0.298683 8.56732 0.234061C6.14883 0.766806 3.97534 2.18263 2.41429 4.24217C0.85325 6.30172 0.000425688 8.87863 0 11.5372V20.7686C0 21.3807 0.225765 21.9677 0.627628 22.4005C1.02949 22.8333 1.57454 23.0765 2.14286 23.0765H9.46473C10.3008 25.1328 11.6747 26.8825 13.4187 28.112C15.1627 29.3415 17.2013 29.9975 19.2857 30H27.8571C28.4255 30 28.9705 29.7569 29.3724 29.324C29.7742 28.8912 30 28.3042 30 27.6922V18.4608C29.9995 15.6398 29.0395 12.9168 27.3015 10.8063C25.5635 8.69582 23.1679 7.34412 20.5674 7.00666ZM2.14286 11.5372C2.14286 9.71145 2.64556 7.92666 3.5874 6.40857C4.52924 4.89048 5.86792 3.70727 7.43414 3.00857C9.00037 2.30987 10.7238 2.12705 12.3865 2.48325C14.0492 2.83944 15.5765 3.71865 16.7752 5.00968C17.9739 6.30071 18.7903 7.94558 19.121 9.73629C19.4517 11.527 19.282 13.3831 18.6333 15.0699C17.9845 16.7568 16.8859 18.1985 15.4763 19.2129C14.0668 20.2272 12.4096 20.7686 10.7143 20.7686H2.14286V11.5372ZM27.8571 27.6922H19.2857C17.7701 27.6903 16.2818 27.2566 14.9721 26.435C13.6624 25.6135 12.5779 24.4334 11.8286 23.0144C13.296 22.8504 14.7162 22.3615 15.9999 21.5783C17.2836 20.7952 18.4031 19.7347 19.2882 18.4634C20.1733 17.1922 20.8049 15.7376 21.1432 14.191C21.4816 12.6444 21.5195 11.0392 21.2545 9.47605C23.1338 9.95373 24.8084 11.1009 26.0068 12.7316C27.2052 14.3623 27.8572 16.3811 27.8571 18.4608V27.6922Z" fill="black"/>
</svg>
