<svg width="25" height="25" viewBox="0 0 25 25" fill="none" xmlns="http://www.w3.org/2000/svg">
<path d="M12.5 0C10.0277 0 7.61099 0.733112 5.55538 2.10663C3.49976 3.48015 1.89761 5.43238 0.951511 7.71645C0.00541606 10.0005 -0.242126 12.5139 0.24019 14.9386C0.722505 17.3634 1.91301 19.5907 3.66117 21.3388C5.40933 23.087 7.63661 24.2775 10.0614 24.7598C12.4861 25.2421 14.9995 24.9946 17.2835 24.0485C19.5676 23.1024 21.5199 21.5002 22.8934 19.4446C24.2669 17.389 25 14.9723 25 12.5C24.9965 9.18587 23.6784 6.00848 21.335 3.66503C18.9915 1.32158 15.8141 0.00349978 12.5 0ZM12.5 18.2692C11.359 18.2692 10.2435 17.9309 9.29479 17.2969C8.34605 16.663 7.60659 15.762 7.16993 14.7078C6.73327 13.6536 6.61902 12.4936 6.84163 11.3745C7.06423 10.2554 7.6137 9.22738 8.42054 8.42054C9.22738 7.6137 10.2554 7.06423 11.3745 6.84162C12.4936 6.61902 13.6536 6.73327 14.7078 7.16992C15.762 7.60658 16.663 8.34604 17.2969 9.29478C17.9309 10.2435 18.2692 11.359 18.2692 12.5C18.2676 14.0296 17.6593 15.4961 16.5777 16.5777C15.4961 17.6593 14.0296 18.2676 12.5 18.2692ZM17.2127 6.42668C16.126 5.57726 14.8299 5.03739 13.4615 4.86418V1.96755C15.5954 2.15977 17.6198 2.99838 19.2644 4.37139L17.2127 6.42668ZM11.5385 4.87019C10.1701 5.0434 8.87397 5.58327 7.78726 6.43269L5.73558 4.375C7.38025 3.00198 9.40465 2.16337 11.5385 1.97115V4.87019ZM6.42669 7.78726C5.57727 8.87397 5.03739 10.1701 4.86419 11.5385H1.96755C2.15977 9.40464 2.99838 7.38025 4.3714 5.73558L6.42669 7.78726ZM4.8702 13.4615C5.0434 14.8299 5.58328 16.126 6.4327 17.2127L4.375 19.2644C3.00199 17.6197 2.16338 15.5954 1.97116 13.4615H4.8702ZM7.78726 18.5733C8.87463 19.4206 10.1707 19.9584 11.5385 20.1298V23.0324C9.40465 22.8402 7.38025 22.0016 5.73558 20.6286L7.78726 18.5733ZM13.4615 20.1298C14.8293 19.9584 16.1254 19.4206 17.2127 18.5733L19.2644 20.625C17.6198 21.998 15.5954 22.8366 13.4615 23.0288V20.1298ZM18.5733 17.2127C19.4206 16.1254 19.9584 14.8293 20.1298 13.4615H23.0325C22.8402 15.5954 22.0016 17.6197 20.6286 19.2644L18.5733 17.2127ZM20.1298 11.5385C19.9584 10.1707 19.4206 8.87462 18.5733 7.78726L20.625 5.73558C21.998 7.38025 22.8366 9.40464 23.0288 11.5385H20.1298Z" fill="black"/>
</svg>
