<svg width="25" height="25" viewBox="0 0 25 25" fill="none" xmlns="http://www.w3.org/2000/svg">
<path d="M11.5385 1.92308V0.961538C11.5385 0.706523 11.6398 0.461951 11.8201 0.281628C12.0004 0.101305 12.245 0 12.5 0C12.755 0 12.9996 0.101305 13.1799 0.281628C13.3602 0.461951 13.4615 0.706523 13.4615 0.961538V1.92308C13.4615 2.17809 13.3602 2.42266 13.1799 2.60299C12.9996 2.78331 12.755 2.88462 12.5 2.88462C12.245 2.88462 12.0004 2.78331 11.8201 2.60299C11.6398 2.42266 11.5385 2.17809 11.5385 1.92308ZM20.1923 12.5C20.1923 14.0214 19.7412 15.5086 18.8959 16.7736C18.0507 18.0386 16.8493 19.0246 15.4437 19.6068C14.0381 20.189 12.4915 20.3413 10.9993 20.0445C9.50714 19.7477 8.13651 19.0151 7.06072 17.9393C5.98493 16.8635 5.25231 15.4929 4.9555 14.0007C4.65869 12.5085 4.81102 10.9619 5.39323 9.55628C5.97545 8.1507 6.96139 6.94932 8.22638 6.10408C9.49138 5.25884 10.9786 4.80769 12.5 4.80769C14.5394 4.80992 16.4947 5.62107 17.9368 7.06318C19.3789 8.50528 20.1901 10.4606 20.1923 12.5ZM18.2692 12.5C18.2692 11.359 17.9309 10.2435 17.2969 9.29479C16.663 8.34604 15.762 7.60659 14.7078 7.16993C13.6536 6.73327 12.4936 6.61902 11.3745 6.84162C10.2554 7.06423 9.22738 7.6137 8.42054 8.42054C7.6137 9.22738 7.06423 10.2554 6.84162 11.3745C6.61902 12.4936 6.73327 13.6536 7.16993 14.7078C7.60659 15.762 8.34604 16.663 9.29479 17.2969C10.2435 17.9309 11.359 18.2692 12.5 18.2692C14.0296 18.2676 15.4961 17.6593 16.5777 16.5777C17.6593 15.4961 18.2676 14.0296 18.2692 12.5ZM4.1274 5.48798C4.30783 5.6684 4.55253 5.76977 4.80769 5.76977C5.06285 5.76977 5.30756 5.6684 5.48798 5.48798C5.6684 5.30756 5.76977 5.06285 5.76977 4.80769C5.76977 4.55253 5.6684 4.30783 5.48798 4.1274L4.52644 3.16587C4.34602 2.98544 4.10131 2.88408 3.84615 2.88408C3.591 2.88408 3.34629 2.98544 3.16587 3.16587C2.98544 3.34629 2.88408 3.591 2.88408 3.84615C2.88408 4.10131 2.98544 4.34602 3.16587 4.52644L4.1274 5.48798ZM4.1274 19.512L3.16587 20.4736C2.98544 20.654 2.88408 20.8987 2.88408 21.1538C2.88408 21.409 2.98544 21.6537 3.16587 21.8341C3.34629 22.0146 3.591 22.1159 3.84615 22.1159C4.10131 22.1159 4.34602 22.0146 4.52644 21.8341L5.48798 20.8726C5.57732 20.7833 5.64818 20.6772 5.69653 20.5605C5.74488 20.4438 5.76977 20.3186 5.76977 20.1923C5.76977 20.066 5.74488 19.9409 5.69653 19.8241C5.64818 19.7074 5.57732 19.6014 5.48798 19.512C5.39864 19.4227 5.29259 19.3518 5.17586 19.3035C5.05914 19.2551 4.93403 19.2302 4.80769 19.2302C4.68135 19.2302 4.55625 19.2551 4.43952 19.3035C4.3228 19.3518 4.21674 19.4227 4.1274 19.512ZM20.1923 5.76923C20.3186 5.76933 20.4437 5.74454 20.5604 5.69628C20.6772 5.64803 20.7832 5.57724 20.8726 5.48798L21.8341 4.52644C22.0146 4.34602 22.1159 4.10131 22.1159 3.84615C22.1159 3.591 22.0146 3.34629 21.8341 3.16587C21.6537 2.98544 21.409 2.88408 21.1538 2.88408C20.8987 2.88408 20.654 2.98544 20.4736 3.16587L19.512 4.1274C19.3774 4.26188 19.2857 4.43328 19.2485 4.6199C19.2114 4.80652 19.2304 4.99997 19.3032 5.17576C19.3761 5.35155 19.4994 5.50178 19.6577 5.60742C19.816 5.71307 20.002 5.76938 20.1923 5.76923ZM20.8726 19.512C20.6922 19.3316 20.4475 19.2302 20.1923 19.2302C19.9371 19.2302 19.6924 19.3316 19.512 19.512C19.3316 19.6924 19.2302 19.9371 19.2302 20.1923C19.2302 20.4475 19.3316 20.6922 19.512 20.8726L20.4736 21.8341C20.5629 21.9235 20.669 21.9943 20.7857 22.0427C20.9024 22.091 21.0275 22.1159 21.1538 22.1159C21.2802 22.1159 21.4053 22.091 21.522 22.0427C21.6387 21.9943 21.7448 21.9235 21.8341 21.8341C21.9235 21.7448 21.9943 21.6387 22.0427 21.522C22.091 21.4053 22.1159 21.2802 22.1159 21.1538C22.1159 21.0275 22.091 20.9024 22.0427 20.7857C21.9943 20.669 21.9235 20.5629 21.8341 20.4736L20.8726 19.512ZM1.92308 11.5385H0.961538C0.706523 11.5385 0.461951 11.6398 0.281628 11.8201C0.101305 12.0004 0 12.245 0 12.5C0 12.755 0.101305 12.9996 0.281628 13.1799C0.461951 13.3602 0.706523 13.4615 0.961538 13.4615H1.92308C2.17809 13.4615 2.42266 13.3602 2.60299 13.1799C2.78331 12.9996 2.88462 12.755 2.88462 12.5C2.88462 12.245 2.78331 12.0004 2.60299 11.8201C2.42266 11.6398 2.17809 11.5385 1.92308 11.5385ZM12.5 22.1154C12.245 22.1154 12.0004 22.2167 11.8201 22.397C11.6398 22.5773 11.5385 22.8219 11.5385 23.0769V24.0385C11.5385 24.2935 11.6398 24.538 11.8201 24.7184C12.0004 24.8987 12.245 25 12.5 25C12.755 25 12.9996 24.8987 13.1799 24.7184C13.3602 24.538 13.4615 24.2935 13.4615 24.0385V23.0769C13.4615 22.8219 13.3602 22.5773 13.1799 22.397C12.9996 22.2167 12.755 22.1154 12.5 22.1154ZM24.0385 11.5385H23.0769C22.8219 11.5385 22.5773 11.6398 22.397 11.8201C22.2167 12.0004 22.1154 12.245 22.1154 12.5C22.1154 12.755 22.2167 12.9996 22.397 13.1799C22.5773 13.3602 22.8219 13.4615 23.0769 13.4615H24.0385C24.2935 13.4615 24.538 13.3602 24.7184 13.1799C24.8987 12.9996 25 12.755 25 12.5C25 12.245 24.8987 12.0004 24.7184 11.8201C24.538 11.6398 24.2935 11.5385 24.0385 11.5385Z" fill="black"/>
</svg>
