<svg width="19" height="21" viewBox="0 0 19 21" fill="none" xmlns="http://www.w3.org/2000/svg">
<path d="M17.9915 9.18474L2.23777 0.192933C1.97204 0.043342 1.66704 -0.0217271 1.36339 0.00639474C1.05975 0.0345165 0.771888 0.154494 0.538152 0.350343C0.304417 0.546192 0.135908 0.808613 0.0550751 1.10265C-0.0257576 1.39668 -0.0150763 1.70836 0.0856964 1.99617L2.95794 10.4975L0.0856964 18.9999C0.00576272 19.2261 -0.0187408 19.4682 0.0142416 19.7059C0.047224 19.9436 0.13673 20.1699 0.27525 20.3658C0.41377 20.5617 0.597263 20.7216 0.810331 20.8319C1.0234 20.9423 1.25983 20.9999 1.49978 21C1.76047 20.9995 2.0166 20.9316 2.24339 20.8031L17.9896 11.7963C18.2219 11.6662 18.4153 11.4766 18.5501 11.2471C18.6849 11.0175 18.7562 10.7562 18.7567 10.49C18.7572 10.2238 18.6868 9.96225 18.5528 9.73221C18.4189 9.50217 18.2261 9.31192 17.9943 9.18099L17.9915 9.18474ZM1.49978 19.4997C1.50018 19.4959 1.50018 19.4922 1.49978 19.4884L4.28856 11.2477H9.75172C9.95068 11.2477 10.1415 11.1687 10.2822 11.028C10.4229 10.8873 10.5019 10.6965 10.5019 10.4975C10.5019 10.2986 10.4229 10.1078 10.2822 9.96709C10.1415 9.82641 9.95068 9.74737 9.75172 9.74737H4.28856L1.50541 1.51043C1.50448 1.50512 1.50258 1.50003 1.49978 1.49543L17.2535 10.4816L1.49978 19.4997Z" fill="black"/>
</svg>
