<svg width="5" height="11" viewBox="0 0 5 11" fill="none" xmlns="http://www.w3.org/2000/svg">
<path d="M4.87781 5.85373L0.711611 10.8535C0.672902 10.8999 0.626949 10.9368 0.576374 10.9619C0.525799 10.9871 0.471593 11 0.416852 11C0.36211 11 0.307904 10.9871 0.257329 10.9619C0.206755 10.9368 0.160801 10.8999 0.122093 10.8535C0.0833846 10.807 0.0526795 10.7519 0.0317308 10.6912C0.010782 10.6305 0 10.5654 0 10.4997C0 10.4341 0.010782 10.369 0.0317308 10.3083C0.0526795 10.2476 0.0833846 10.1925 0.122093 10.146L3.99406 5.5L0.122093 0.853985C0.043918 0.760169 -8.23706e-10 0.632928 0 0.500253C8.23707e-10 0.367577 0.043918 0.240336 0.122093 0.146521C0.200268 0.052705 0.306296 9.88508e-10 0.416852 0C0.527408 -9.88508e-10 0.633436 0.052705 0.711611 0.146521L4.87781 5.14627C4.91655 5.1927 4.94728 5.24784 4.96824 5.30854C4.98921 5.36924 5 5.4343 5 5.5C5 5.5657 4.98921 5.63076 4.96824 5.69146C4.94728 5.75216 4.91655 5.8073 4.87781 5.85373Z" fill="black"/>
</svg>
