<svg width="27" height="27" viewBox="0 0 27 27" fill="none" xmlns="http://www.w3.org/2000/svg">
<g filter="url(#filter0_d_11_76)">
<path d="M13.4582 9.9637L18.0185 8.21304L18.0512 8.20018C18.343 8.07076 18.589 7.85613 18.7567 7.58447C18.9244 7.3128 19.0061 6.99677 18.991 6.67787C18.9759 6.35896 18.8647 6.05206 18.6721 5.79744C18.4795 5.54282 18.2144 5.35237 17.9116 5.25109L2.06946 0.0783005C1.79225 -0.0124245 1.49532 -0.0245669 1.21163 0.0432204C0.927936 0.111008 0.668574 0.256074 0.462325 0.462319C0.256077 0.668565 0.111009 0.927924 0.043221 1.21161C-0.0245672 1.4953 -0.0124247 1.79223 0.0783015 2.06943L5.25116 17.9114C5.34864 18.2171 5.53772 18.4855 5.7928 18.6802C6.04787 18.8749 6.35661 18.9866 6.67723 19H6.75442C7.06195 19.0011 7.36299 18.9117 7.62008 18.7429C7.87717 18.5742 8.07895 18.3335 8.20029 18.0509L8.21315 18.0183L9.96383 13.4581L15.0417 18.5359C15.1887 18.6829 15.3633 18.7996 15.5554 18.8792C15.7476 18.9588 15.9535 18.9998 16.1615 18.9998C16.3694 18.9998 16.5754 18.9588 16.7675 18.8792C16.9596 18.7996 17.1342 18.6829 17.2812 18.5359L18.5361 17.281C18.6832 17.134 18.7998 16.9594 18.8794 16.7673C18.959 16.5751 19 16.3692 19 16.1612C19 15.9533 18.959 15.7473 18.8794 15.5552C18.7998 15.3631 18.6832 15.1885 18.5361 15.0415L13.4582 9.9637ZM16.161 17.4166L11.0831 12.3388C10.9007 12.156 10.6763 12.0207 10.4296 11.9445C10.1828 11.8683 9.92116 11.8536 9.66744 11.9017C9.41372 11.9498 9.17562 12.0593 8.97388 12.2205C8.77215 12.3817 8.61291 12.5898 8.51004 12.8267C8.51004 12.8376 8.50114 12.8485 8.49718 12.8584L6.75046 17.4106L1.58256 1.58254L17.402 6.74839L12.8546 8.4941L12.8229 8.50696C12.586 8.60983 12.3779 8.76907 12.2167 8.9708C12.0555 9.17253 11.946 9.41063 11.8979 9.66435C11.8498 9.91807 11.8645 10.1797 11.9407 10.4264C12.0169 10.6732 12.1522 10.8976 12.335 11.08L17.4168 16.1607L16.161 17.4166Z" fill="black"/>
</g>
<defs>
<filter id="filter0_d_11_76" x="0" y="0" width="27" height="27" filterUnits="userSpaceOnUse" color-interpolation-filters="sRGB">
<feFlood flood-opacity="0" result="BackgroundImageFix"/>
<feColorMatrix in="SourceAlpha" type="matrix" values="0 0 0 0 0 0 0 0 0 0 0 0 0 0 0 0 0 0 127 0" result="hardAlpha"/>
<feOffset dx="4" dy="4"/>
<feGaussianBlur stdDeviation="2"/>
<feComposite in2="hardAlpha" operator="out"/>
<feColorMatrix type="matrix" values="0 0 0 0 0 0 0 0 0 0 0 0 0 0 0 0 0 0 0.3 0"/>
<feBlend mode="normal" in2="BackgroundImageFix" result="effect1_dropShadow_11_76"/>
<feBlend mode="normal" in="SourceGraphic" in2="effect1_dropShadow_11_76" result="shape"/>
</filter>
</defs>
</svg>
